<?xml version="1.0" encoding="UTF-8" standalone="no"?>
<!-- Uploaded to: SVG Repo, www.svgrepo.com, Generator: SVG Repo Mixer Tools -->

<svg
   width="800px"
   height="800px"
   viewBox="0 0 76 76"
   version="1.1"
   enable-background="new 0 0 76.00 76.00"
   xml:space="preserve"
   id="svg1"
   sodipodi:docname="controller-xbox-svgrepo-com.svg"
   inkscape:version="1.3.2 (091e20e, 2023-11-25)"
   xmlns:inkscape="http://www.inkscape.org/namespaces/inkscape"
   xmlns:sodipodi="http://sodipodi.sourceforge.net/DTD/sodipodi-0.dtd"
   xmlns="http://www.w3.org/2000/svg"
   xmlns:svg="http://www.w3.org/2000/svg"><defs
   id="defs1" /><sodipodi:namedview
   id="namedview1"
   pagecolor="#ffffff"
   bordercolor="#000000"
   borderopacity="0.25"
   inkscape:showpageshadow="2"
   inkscape:pageopacity="0.0"
   inkscape:pagecheckerboard="0"
   inkscape:deskcolor="#d1d1d1"
   inkscape:zoom="0.295"
   inkscape:cx="400"
   inkscape:cy="400"
   inkscape:window-width="1492"
   inkscape:window-height="784"
   inkscape:window-x="0"
   inkscape:window-y="0"
   inkscape:window-maximized="1"
   inkscape:current-layer="svg1" />
	<path
   fill="#000000"
   fill-opacity="1"
   stroke-width="0.227576"
   stroke-linejoin="round"
   stroke="#ffffff"
   stroke-opacity="1"
   d="m 38,20.579164 c 5.493936,0 21.288719,-13.7347535 29.529536,2.74688 8.240818,16.481634 6.180613,38.457204 0.686851,38.457204 -13.734753,0 -5.493936,-13.734752 -30.216387,-13.734752 -24.722451,0 -16.481633,13.734752 -30.2163873,13.734752 -5.4937619,0 -7.5539658,-21.97557 0.6868507,-38.457204 C 16.711281,6.8445846 32.506065,20.579164 38,20.579164 Z m -19.228516,6.180613 v 4.807257 h -4.807259 v 5.493764 h 4.807259 v 4.807258 h 5.493763 v -4.807258 h 4.807259 v -5.493764 h -4.807259 v -4.807257 z m 31.589742,3.43373 c -1.517178,0 -2.747055,1.229877 -2.747055,2.746882 0,1.517178 1.229877,2.747055 2.747055,2.747055 1.517004,0 2.746881,-1.229877 2.746881,-2.747055 0,-1.517005 -1.229877,-2.746882 -2.746881,-2.746882 z m 5.493935,-4.807258 c -1.517178,0 -2.747054,1.229876 -2.747054,2.747055 0,1.517004 1.229876,2.746881 2.747054,2.746881 1.517005,0 2.746883,-1.229877 2.746883,-2.746881 0,-1.517179 -1.229878,-2.747055 -2.746883,-2.747055 z m 0,10.301022 c -1.517178,0 -2.747054,1.229876 -2.747054,2.747054 0,1.517004 1.229876,2.74688 2.747054,2.74688 1.517005,0 2.746883,-1.229876 2.746883,-2.74688 0,-1.517178 -1.229878,-2.747054 -2.746883,-2.747054 z m 5.493763,-5.493764 c -1.517004,0 -2.74688,1.229704 -2.74688,2.746882 0,1.517178 1.229876,2.746882 2.74688,2.746882 1.517178,0 2.747054,-1.229704 2.747054,-2.746882 0,-1.517178 -1.229876,-2.746882 -2.747054,-2.746882 z"
   id="path1" />
</svg>
